<?xml version="1.0" encoding="utf-8"?>
<!-- Generator: Adobe Illustrator 20.1.0, SVG Export Plug-In . SVG Version: 6.00 Build 0)  -->
<svg version="1.1" id="Ebene_1" xmlns="http://www.w3.org/2000/svg" xmlns:xlink="http://www.w3.org/1999/xlink" x="0px" y="0px"
	 viewBox="0 0 29 59.3" style="enable-background:new 0 0 29 59.3;" xml:space="preserve">
<path d="M29,53.1l-0.1-0.4c-0.2-0.4-0.3-0.6-4.2-1.8V14.6l-0.3-0.3c-0.4-0.3-1.6-0.5-3.1-0.7c0-4.4,0-8.2,0-10
	c2.3-0.3,2.4-0.9,2.4-1.2c0.1-0.4,0-0.7,0-0.8l-0.1-0.3l-0.2-0.2C22.4,0.3,18,0,14.5,0C11,0,6.6,0.3,5.6,1.1L5.4,1.3L5.3,1.6
	c0,0.1-0.1,0.4,0,0.8c0.1,0.3,0.2,0.9,2.4,1.2c0,1.8,0,5.6,0,10C6.3,13.7,5,14,4.7,14.3l-0.3,0.3v36.3c-4,1.2-4,1.4-4.2,1.8L0,53.1
	c0,1.5,0,1.5,0.1,1.7c0.1,0.3,0.5,1,4,1.3c0,0.7,0,1.4,0.1,1.8c0.1,0.9,0.2,1.4,10.6,1.4c9.1,0,9.6-0.7,9.8-1
	c0.2-0.2,0.3-0.4,0.3-2.3c3-0.3,3.7-0.7,4-1.2C29,54.6,29,54.6,29,53.1z M21.2,15.5c0.7,0.1,1.2,0.1,1.5,0.2v23.2
	c-0.1-0.2-0.2-0.4-0.4-0.7c-0.4-0.7-0.9-1.8-1.1-2.1C21.2,34.4,21.2,24.3,21.2,15.5z M9.7,2.7V2.1c1.4-0.1,3.2-0.2,4.8-0.2
	c1.6,0,3.4,0.1,4.8,0.2v0.6c0,0,0,4.8,0,10.8c-2.1-0.1-4.1-0.1-4.8-0.1c-0.7,0-2.8,0-4.8,0.1C9.7,7.5,9.7,2.7,9.7,2.7z M8.3,39.1
	c1.4-2.6,1.4-2.6,1.4-2.9c0-0.2,0-11.4,0-20.8c1.6-0.1,3.4-0.1,4.8-0.1s3.2,0.1,4.8,0.1c0,9.4,0,20.6,0,20.8c0,0.3,0,0.3,1.4,2.9
	c0.1,0.2,0.2,0.4,0.3,0.6c-1.1,0.1-3.6,0.3-6.5,0.3c-2.8,0-5.4-0.2-6.5-0.3C8.1,39.5,8.2,39.3,8.3,39.1z M6.2,15.7
	c0.4-0.1,0.9-0.1,1.5-0.2c0,8.7,0,18.9,0,20.5c-0.2,0.4-0.8,1.5-1.1,2.1c-0.2,0.3-0.3,0.5-0.4,0.7V15.7z M23.9,54.3
	c-2.2,0.2-5,0.3-8.2,0.3c-5.5,0-10.6-0.3-10.7-0.3c-1.2-0.1-2.5-0.3-3.1-0.4c0,0,0-0.1,0-0.1c0.7-0.3,2.3-0.8,3.6-1.2l0.7-0.2V41
	c0.2,0.2,0.4,0.4,0.8,0.5c0.7,0.2,4.1,0.4,7.5,0.4c3.6,0,6.7-0.3,7.5-0.4c0.4-0.1,0.6-0.3,0.8-0.5v11.3l0.7,0.2
	c1.3,0.4,2.9,0.9,3.6,1.2c0,0,0,0.1,0,0.1C26.7,53.9,25.8,54.1,23.9,54.3z"/>
</svg>
